<?xml version="1.0" encoding="UTF-8"?>
<svg id="Layer_1" xmlns="http://www.w3.org/2000/svg" version="1.1" viewBox="0 0 500 500">
  <!-- Generator: Adobe Illustrator 30.1.0, SVG Export Plug-In . SVG Version: 2.1.1 Build 136)  -->
  <defs>
    <style>
      .st0 {
        fill: #7e749b;
      }

      .st1 {
        fill: #fefe01;
      }

      .st2 {
        fill: #fafb5c;
      }

      .st3 {
        fill: #fcfb71;
      }

      .st4 {
        fill: #fff;
      }

      .st5 {
        fill: #dccf00;
      }

      .st6 {
        fill: #101503;
      }

      .st7 {
        fill: #c2c88b;
      }

      .st8 {
        fill: #09042d;
      }

      .st9 {
        fill: #110f33;
      }

      .st10 {
        opacity: .61;
      }

      .st11 {
        fill: #7879ac;
      }

      .st12 {
        fill: #100723;
      }

      .st13 {
        fill: #7877ac;
      }

      .st14 {
        fill: #7978af;
      }

      .st15 {
        fill: #fefdcd;
      }

      .st16 {
        fill: #7879ad;
      }

      .st17 {
        display: none;
      }

      .st18 {
        fill: #fcf976;
      }

      .st19 {
        fill: #030166;
      }

      .st20 {
        fill: #7778aa;
      }

      .st21 {
        fill: #fcfdce;
      }
    </style>
  </defs>
  <g id="watermark" class="st17">
    <g>
      <g id="watermark1" data-name="watermark" class="st10">
        <g>
          <g>
            <g>
              <polygon class="st4" points="213.76 461.17 208.2 474.02 205.27 474.02 199.73 461.17 202.94 461.17 206.85 470.35 210.81 461.17 213.76 461.17"/>
              <path class="st4" d="M223.51,469.74h-7.47c.28,1.23,1.32,1.98,2.83,1.98,1.05,0,1.8-.31,2.48-.95l1.52,1.65c-.92,1.05-2.29,1.6-4.07,1.6-3.41,0-5.63-2.15-5.63-5.08s2.26-5.08,5.27-5.08,5.14,1.95,5.14,5.12c-.02.21-.05.52-.07.76M216,468.07h4.86c-.2-1.25-1.14-2.06-2.42-2.06-1.3,0-2.24.8-2.44,2.06"/>
              <path class="st4" d="M224.74,468.93c0-2.97,2.29-5.08,5.51-5.08,2.07,0,3.71.9,4.42,2.51l-2.22,1.19c-.53-.94-1.32-1.36-2.22-1.36-1.45,0-2.59,1.01-2.59,2.73s1.14,2.73,2.59,2.73c.9,0,1.69-.4,2.22-1.36l2.22,1.21c-.72,1.58-2.35,2.5-4.42,2.5-3.22.02-5.51-2.09-5.51-5.07"/>
              <path class="st4" d="M242.83,473.39c-.59.42-1.45.62-2.33.62-2.33,0-3.69-1.19-3.69-3.54v-4.06h-1.52v-2.2h1.52v-2.4h2.86v2.4h2.46v2.2h-2.46v4.02c0,.84.46,1.3,1.23,1.3.42,0,.84-.13,1.16-.37l.77,2.03Z"/>
            </g>
            <path class="st4" d="M262.47,464v2.64c-.24-.02-.42-.04-.64-.04-1.58,0-2.62.86-2.62,2.75v4.66h-2.86v-9.87h2.73v1.3c.7-.95,1.87-1.44,3.39-1.44"/>
            <path class="st4" d="M263.3,472.53l1.01-2.24c1.08.79,2.7,1.34,4.24,1.34,1.76,0,2.48-.59,2.48-1.38,0-2.4-7.47-.75-7.47-5.52,0-2.18,1.76-4,5.41-4,1.61,0,3.27.39,4.46,1.14l-.92,2.26c-1.19-.68-2.42-1.01-3.56-1.01-1.76,0-2.44.66-2.44,1.47,0,2.37,7.47.73,7.47,5.45,0,2.15-1.78,3.98-5.45,3.98-2.04,0-4.09-.61-5.23-1.49"/>
            <path class="st4" d="M285.43,469.74h-7.47c.28,1.23,1.32,1.98,2.83,1.98,1.05,0,1.8-.31,2.48-.95l1.52,1.65c-.92,1.05-2.29,1.6-4.07,1.6-3.41,0-5.63-2.15-5.63-5.08s2.26-5.08,5.27-5.08,5.14,1.95,5.14,5.12c-.02.21-.05.52-.07.76M277.92,468.07h4.86c-.2-1.25-1.14-2.06-2.42-2.06-1.3,0-2.23.8-2.44,2.06"/>
            <path class="st4" d="M297.01,469.74h-7.47c.28,1.23,1.32,1.98,2.83,1.98,1.05,0,1.8-.31,2.48-.95l1.52,1.65c-.92,1.05-2.29,1.6-4.07,1.6-3.41,0-5.63-2.15-5.63-5.08s2.26-5.08,5.27-5.08,5.14,1.95,5.14,5.12c-.02.21-.06.52-.07.76M289.5,468.07h4.86c-.2-1.25-1.14-2.06-2.42-2.06-1.3,0-2.24.8-2.44,2.06"/>
            <polygon class="st4" points="303.21 470.14 301.83 471.5 301.83 474.02 298.97 474.02 298.97 460.4 301.83 460.4 301.83 468.11 306.02 464.14 309.43 464.14 305.32 468.33 309.8 474.02 306.33 474.02 303.21 470.14"/>
            <path class="st4" d="M256.6,475.36h0l-2.86-2.86c-.44.51-.95.94-1.53,1.28-.09.07-.19.14-.28.2l3.03,3.03c.46.46,1.19.46,1.65,0,.45-.46.45-1.2-.01-1.65"/>
            <path class="st4" d="M249.98,463.24c.22-.17.49-.28.8-.28.04,0,.08,0,.12.01-.21-.16-.48-.25-.76-.25-.39,0-.74.18-.98.46-.05,0-.1.01-.15.01.04-.08.06-.16.06-.25,0-.23-.14-.43-.35-.52.09.13.14.28.14.44,0,.12-.03.24-.08.34-2.81.2-5.03,2.54-5.03,5.4s2.43,5.42,5.42,5.42,5.42-2.43,5.42-5.42c.01-2.72-2-4.96-4.61-5.36M247.98,464.66c.43,0,.84.11,1.2.31.37-.24.82-.39,1.3-.39.71,0,1.35.31,1.78.81-.44-.38-1-.61-1.63-.61-.45,0-.87.12-1.23.33-.08.05-.16.1-.23.15-.07-.05-.13-.09-.2-.13-.37-.22-.8-.34-1.26-.34-.3,0-.59.05-.85.15.34-.19.72-.28,1.12-.28M251.77,469.1c.12.3.18.63.18.98,0,1.53-1.24,2.78-2.78,2.78s-2.78-1.24-2.78-2.78c0-.35.07-.67.18-.98-.62-.38-1.03-1.06-1.03-1.85,0-1.2.97-2.17,2.17-2.17.56,0,1.08.22,1.46.57.39-.35.9-.57,1.46-.57,1.2,0,2.17.97,2.17,2.17,0,.78-.41,1.47-1.03,1.85"/>
            <path class="st4" d="M251.67,467.06c0,.5-.4.9-.9.9s-.9-.4-.9-.9.4-.9.9-.9c.1,0,.2.02.29.05-.03.06-.05.13-.05.2,0,.27.22.49.49.49.05,0,.1-.01.15-.02.01.06.02.12.02.18"/>
            <path class="st4" d="M248.26,467.06c0,.38-.31.68-.68.68s-.68-.31-.68-.68.31-.68.68-.68c.08,0,.15.01.22.04-.02.05-.03.1-.03.15,0,.21.17.37.37.37.04,0,.08-.01.11-.02,0,.05,0,.1,0,.14"/>
            <g>
              <g>
                <rect class="st4" x="242.91" y="467.83" width=".62" height=".62"/>
                <rect class="st4" x="254.83" y="467.83" width=".62" height=".62"/>
                <path class="st4" d="M255.21,468.08h-.14c0-3.25-2.64-5.89-5.89-5.89s-5.89,2.64-5.89,5.89h-.14c0-1.61.63-3.12,1.77-4.26s2.65-1.77,4.26-1.77,3.12.63,4.26,1.77c1.14,1.14,1.77,2.65,1.77,4.26"/>
              </g>
              <rect class="st4" x="248.87" y="461.81" width=".62" height=".62"/>
              <rect class="st4" x="244.95" y="462.05" width="8.45" height=".14"/>
              <path class="st4" d="M245.17,462.15c0,.11-.09.2-.2.2s-.2-.09-.2-.2.09-.2.2-.2c.12,0,.2.09.2.2"/>
              <path class="st4" d="M253.6,462.15c0,.11-.09.2-.2.2s-.2-.09-.2-.2.09-.2.2-.2c.11,0,.2.09.2.2"/>
            </g>
          </g>
          <path class="st4" d="M314.36,473.41c0,1.56-2.36,1.56-2.36,0-.01-1.56,2.36-1.56,2.36,0Z"/>
          <g>
            <g>
              <path class="st4" d="M161.74,466.55l1.77,6.09,1.85-6.09h2.22l-2.82,8.14h-2.33l-.84-2.4-.72-2.71-.72,2.71-.84,2.4h-2.33l-2.84-8.14h2.23l1.85,6.09,1.76-6.09h1.76Z"/>
              <path class="st4" d="M176.71,466.55l1.77,6.09,1.85-6.09h2.22l-2.82,8.14h-2.33l-.84-2.4-.72-2.71-.72,2.71-.84,2.4h-2.33l-2.84-8.14h2.23l1.85,6.09,1.76-6.09h1.76Z"/>
              <path class="st4" d="M191.69,466.55l1.77,6.09,1.85-6.09h2.22l-2.82,8.14h-2.33l-.84-2.4-.72-2.71-.72,2.71-.84,2.4h-2.33l-2.84-8.14h2.23l1.85,6.09,1.76-6.09h1.76Z"/>
            </g>
            <path class="st4" d="M200.91,473.52c0,1.56-2.36,1.56-2.36,0-.01-1.56,2.36-1.56,2.36,0Z"/>
            <path class="st4" d="M322.71,473.41c-.94.92-1.92,1.28-3.12,1.28-2.35,0-4.3-1.41-4.3-4.28s1.95-4.28,4.3-4.28c1.15,0,2.03.33,2.92,1.2l-1.26,1.33c-.48-.43-1.07-.64-1.62-.64-1.35,0-2.33.98-2.33,2.4,0,1.54,1.05,2.36,2.3,2.36.64,0,1.28-.18,1.77-.67l1.34,1.3Z"/>
            <path class="st4" d="M331.81,470.47c0,2.33-1.59,4.22-4.22,4.22s-4.2-1.89-4.2-4.22,1.61-4.22,4.18-4.22c2.58.01,4.24,1.91,4.24,4.22ZM325.39,470.47c0,1.23.74,2.38,2.2,2.38s2.2-1.15,2.2-2.38-.85-2.4-2.2-2.4c-1.45,0-2.2,1.19-2.2,2.4Z"/>
            <path class="st4" d="M338.57,474.69v-4.33c0-1.07-.56-2.03-1.66-2.03s-1.72.97-1.72,2.03v4.33h-2v-8.11h1.85l.15.98c.43-.82,1.36-1.12,2.13-1.12.97,0,1.94.39,2.4,1.51.72-1.15,1.66-1.48,2.71-1.48,2.3,0,3.43,1.41,3.43,3.84v4.37h-2v-4.37c0-1.07-.44-1.97-1.53-1.97s-1.76.94-1.76,2v4.33h-2v.02Z"/>
          </g>
        </g>
      </g>
      <g class="st10">
        <g>
          <path class="st4" d="M345.99,431.3c-.01-1.22-.96-2.12-2.19-2.14-.92-.01-.83.12-.83-.87,0-1.1-.01-2.19,0-3.29,0-.38-.11-.69-.36-.98-2.34-2.67-4.68-5.34-7.02-8.01-.12-.14-.28-.24-.41-.37h-18.64c-.79.29-1.14.87-1.14,1.71.01,3.75,0,7.5,0,11.24,0,.56,0,.59-.55.55-1.5-.1-2.52.99-2.5,2.49.04,3.48.01,6.95.01,10.43,0,1.58.87,2.44,2.45,2.45q.58,0,.58.6v6.66c0,1.19.58,1.77,1.77,1.77h24.04c1.17,0,1.76-.58,1.76-1.75v-6.77q0-.51.52-.52c.27,0,.54.01.81-.06,1-.25,1.69-1.04,1.69-2.07.02-3.67.03-7.37,0-11.07ZM317.54,417.16h16.01c.55,0,.55.01.55.56v6.73c0,.81.25,1.06,1.06,1.06h5.73c.46,0,.48.02.48.48v2.66c0,.48-.02.5-.5.5h-23.33q-.55,0-.55-.56v-10.87c0-.55,0-.56.55-.56ZM340.82,451.58h-23.26q-.57,0-.57-.58v-5.99c0-.46.02-.49.48-.49h23.41c.48,0,.5.02.5.5v5.99c-.01.56-.01.57-.56.57Z"/>
          <g>
            <rect class="st4" x="327.42" y="417.05" width="1.76" height="1.05"/>
            <rect class="st4" x="325.66" y="418.11" width="1.76" height="1.05"/>
            <rect class="st4" x="327.42" y="419.16" width="1.76" height="1.05"/>
            <rect class="st4" x="325.66" y="420.22" width="1.76" height="1.05"/>
            <rect class="st4" x="327.42" y="421.27" width="1.76" height="1.05"/>
            <rect class="st4" x="325.66" y="422.32" width="1.76" height="1.05"/>
            <rect class="st4" x="327.42" y="423.38" width="1.76" height="1.05"/>
            <rect class="st4" x="325.66" y="424.43" width="1.76" height="1.05"/>
            <rect class="st4" x="327.42" y="425.49" width="1.76" height="1.05"/>
            <rect class="st4" x="325.66" y="426.54" width="1.76" height="1.05"/>
            <rect class="st4" x="327.42" y="427.59" width="1.76" height="1.05"/>
            <rect class="st4" x="325.66" y="428.65" width="1.76" height="1.05"/>
          </g>
        </g>
        <path class="st4" d="M187.64,431.3c0-1.22-.96-2.12-2.19-2.14-.92-.01-.83.12-.83-.87,0-1.1,0-2.19,0-3.29,0-.38-.11-.69-.36-.98-2.34-2.67-4.68-5.34-7.02-8.01-.12-.14-.28-.24-.41-.37h-18.64c-.79.29-1.14.87-1.14,1.71,0,3.75,0,7.5,0,11.24,0,.56,0,.59-.55.55-1.5-.1-2.52.99-2.5,2.49.04,3.48,0,6.95,0,10.43,0,1.58.87,2.44,2.45,2.45q.58,0,.58.6v6.66c0,1.19.58,1.77,1.77,1.77h24.04c1.17,0,1.76-.58,1.76-1.75v-6.77q0-.51.52-.52c.27,0,.54.01.81-.06,1-.25,1.69-1.04,1.69-2.07.02-3.67.02-7.37.01-11.07ZM159.19,417.16h16.01c.55,0,.55.01.55.56v6.73c0,.81.25,1.06,1.06,1.06h5.73c.46,0,.48.02.48.48v2.66c0,.48-.02.5-.5.5h-23.33q-.55,0-.55-.56v-10.87c0-.55,0-.56.55-.56ZM182.47,451.58h-23.26q-.57,0-.57-.58v-5.99c0-.46.02-.49.48-.49h23.41c.48,0,.5.02.5.5v5.99c0,.56,0,.57-.56.57Z"/>
        <g>
          <path class="st4" d="M159.78,440.67v-7.9h2.78c.38,0,.73.06,1.05.18.33.12.61.29.85.51s.43.48.57.79c.14.31.21.64.21,1.01s-.07.72-.21,1.02c-.14.31-.33.57-.57.79s-.53.39-.85.51c-.33.12-.68.18-1.05.18h-1.29v2.9h-1.49ZM162.58,436.36c.39,0,.68-.11.88-.33.2-.22.3-.47.3-.76,0-.14-.02-.28-.07-.41s-.12-.25-.22-.35-.22-.18-.37-.24-.32-.09-.52-.09h-1.31v2.17h1.31Z"/>
          <path class="st4" d="M166.31,432.77h1.73l3.18,5.29h.09l-.09-1.52v-3.77h1.48v7.9h-1.57l-3.35-5.59h-.09l.09,1.52v4.07h-1.47v-7.9h0Z"/>
          <path class="st4" d="M177.92,436.33h3.87c.02.09.04.2.05.32,0,.12.02.25.02.38,0,.51-.08.99-.23,1.43-.15.45-.4.85-.73,1.2-.35.38-.78.67-1.27.87-.49.21-1.06.31-1.69.31-.57,0-1.11-.1-1.62-.31s-.95-.49-1.32-.86c-.38-.37-.67-.8-.89-1.31-.22-.5-.33-1.05-.33-1.65s.11-1.15.33-1.65.52-.94.89-1.31c.38-.37.82-.65,1.32-.86.51-.21,1.05-.31,1.62-.31.64,0,1.21.11,1.71.33s.94.53,1.3.92l-1.03,1c-.26-.27-.54-.48-.86-.62-.32-.14-.7-.22-1.14-.22-.36,0-.7.06-1.03.19-.32.13-.61.31-.85.55s-.44.52-.58.85c-.14.33-.22.71-.22,1.12s.07.79.22,1.12c.14.33.34.62.58.85.25.24.53.42.86.55.32.13.67.19,1.04.19.42,0,.77-.06,1.06-.18s.54-.28.74-.47c.15-.13.27-.3.38-.5s.19-.43.25-.68h-2.48v-1.25h.03Z"/>
        </g>
        <path class="st4" d="M224.02,431.3c0-1.22-.96-2.12-2.19-2.14-.92-.01-.83.12-.83-.87,0-1.1,0-2.19,0-3.29,0-.38-.11-.69-.36-.98-2.34-2.67-4.68-5.34-7.02-8.01-.12-.14-.28-.24-.41-.37h-18.64c-.79.29-1.14.87-1.14,1.71,0,3.75,0,7.5,0,11.24,0,.56,0,.59-.55.55-1.5-.1-2.52.99-2.5,2.49.04,3.48,0,6.95,0,10.43,0,1.58.87,2.44,2.45,2.45q.58,0,.58.6v6.66c0,1.19.58,1.77,1.77,1.77h24.04c1.17,0,1.76-.58,1.76-1.75v-6.77q0-.51.52-.52c.27,0,.54.01.81-.06,1-.25,1.69-1.04,1.69-2.07.02-3.67.03-7.37.01-11.07ZM195.57,417.16h16.01c.55,0,.55.01.55.56v6.73c0,.81.25,1.06,1.06,1.06h5.73c.46,0,.48.02.48.48v2.66c0,.48-.02.5-.5.5h-23.33q-.55,0-.55-.56v-10.87c0-.55,0-.56.55-.56ZM218.85,451.58h-23.26q-.57,0-.57-.58v-5.99c0-.46.02-.49.48-.49h23.41c.48,0,.5.02.5.5v5.99c0,.56-.01.57-.56.57Z"/>
        <g>
          <path class="st4" d="M205.11,432.77h1.7l2.97,7.9h-1.64l-.65-1.89h-3.04l-.65,1.89h-1.64l2.95-7.9ZM207,437.42l-.71-1.97-.29-.96h-.09l-.29.96-.71,1.97h2.09Z"/>
          <path class="st4" d="M211.33,434.54c-.13,0-.24-.02-.36-.07-.11-.05-.21-.11-.3-.2-.08-.08-.15-.18-.2-.29-.05-.11-.07-.23-.07-.36s.02-.25.07-.36.11-.21.2-.29c.08-.08.18-.15.3-.2.11-.05.23-.07.36-.07.26,0,.48.09.66.27.18.18.28.4.28.66s-.09.48-.28.66c-.18.16-.4.25-.66.25ZM210.61,440.67v-5.4h1.44v5.4h-1.44Z"/>
        </g>
        <path class="st4" d="M261.04,431.3c-.01-1.22-.96-2.12-2.19-2.14-.92-.01-.83.12-.83-.87,0-1.1-.01-2.19,0-3.29,0-.38-.11-.69-.36-.98-2.34-2.67-4.68-5.34-7.02-8.01-.12-.14-.28-.24-.41-.37h-18.64c-.79.29-1.14.87-1.14,1.71,0,3.75,0,7.5,0,11.24,0,.56,0,.59-.55.55-1.5-.1-2.52.99-2.5,2.49.04,3.48,0,6.95,0,10.43,0,1.58.87,2.44,2.45,2.45q.58,0,.58.6v6.66c0,1.19.58,1.77,1.77,1.77h24.04c1.17,0,1.76-.58,1.76-1.75v-6.77q0-.51.52-.52c.27,0,.54.01.81-.06,1-.25,1.69-1.04,1.69-2.07.03-3.67.03-7.37,0-11.07ZM232.59,417.16h16.01c.55,0,.55.01.55.56v6.73c0,.81.25,1.06,1.06,1.06h5.73c.46,0,.48.02.48.48v2.66c0,.48-.02.5-.5.5h-23.33q-.55,0-.55-.56v-10.87c0-.55.01-.56.55-.56ZM255.88,451.58h-23.26q-.57,0-.57-.58v-5.99c0-.46.02-.49.48-.49h23.41c.48,0,.5.02.5.5v5.99c-.01.56-.01.57-.56.57Z"/>
        <g>
          <path class="st4" d="M236.36,440.84c-.34,0-.66-.05-.97-.14-.31-.1-.59-.24-.85-.43-.26-.19-.48-.42-.67-.7s-.34-.6-.45-.97l1.4-.55c.1.4.28.73.54.99.26.26.6.39,1.01.39.15,0,.3-.02.45-.06.14-.04.27-.1.39-.18s.2-.17.27-.29.1-.25.1-.41c0-.15-.03-.28-.08-.4s-.14-.23-.26-.33c-.12-.1-.28-.2-.47-.3-.19-.1-.44-.19-.72-.3l-.49-.18c-.21-.07-.43-.17-.65-.3-.22-.12-.41-.28-.59-.45-.18-.18-.32-.38-.44-.62-.11-.24-.17-.51-.17-.81s.06-.6.18-.87.29-.5.52-.71c.22-.2.49-.36.8-.47s.66-.17,1.04-.17c.4,0,.74.05,1.03.16.29.11.54.24.74.41.2.17.37.35.49.55.12.2.22.39.28.56l-1.31.55c-.07-.22-.21-.42-.4-.6-.2-.18-.46-.26-.8-.26-.32,0-.59.08-.8.23-.21.15-.32.35-.32.59s.1.44.31.6c.21.17.53.33.98.48l.5.17c.32.11.6.24.87.38.26.14.49.31.67.51.19.2.33.42.43.68.1.25.15.55.15.88,0,.41-.08.77-.25,1.06-.17.3-.38.54-.63.73-.26.19-.55.33-.87.43-.33.11-.65.15-.96.15Z"/>
          <path class="st4" d="M239.52,432.77h1.61l1.63,4.75.29,1.01h.09l.31-1.01,1.7-4.75h1.61l-2.88,7.9h-1.57l-2.79-7.9Z"/>
          <path class="st4" d="M251.1,436.33h3.87c.02.09.04.2.05.32.02.12.02.25.02.38,0,.51-.08.99-.23,1.43-.15.45-.4.85-.73,1.2-.35.38-.78.67-1.27.87-.49.21-1.06.31-1.69.31-.57,0-1.11-.1-1.62-.31s-.95-.49-1.32-.86c-.38-.37-.67-.8-.89-1.31-.22-.5-.33-1.05-.33-1.65s.11-1.15.33-1.65.52-.94.89-1.31c.38-.37.82-.65,1.32-.86.51-.21,1.05-.31,1.62-.31.64,0,1.21.11,1.71.33s.94.53,1.3.92l-1.03,1c-.26-.27-.54-.48-.86-.62-.32-.14-.69-.22-1.14-.22-.36,0-.7.06-1.03.19-.32.13-.61.31-.85.55s-.44.52-.58.85c-.14.33-.22.71-.22,1.12s.07.79.22,1.12c.14.33.34.62.58.85.25.24.53.42.85.55.32.13.67.19,1.04.19.42,0,.77-.06,1.06-.18s.54-.28.74-.47c.15-.13.27-.3.38-.5s.19-.43.25-.68h-2.48v-1.25h.04Z"/>
        </g>
        <path class="st4" d="M297.3,431.3c-.01-1.22-.96-2.12-2.19-2.14-.92-.01-.83.12-.83-.87,0-1.1-.01-2.19,0-3.29,0-.38-.11-.69-.36-.98-2.34-2.67-4.68-5.34-7.02-8.01-.12-.14-.28-.24-.41-.37h-18.64c-.79.29-1.14.87-1.14,1.71.01,3.75,0,7.5,0,11.24,0,.56,0,.59-.55.55-1.5-.1-2.52.99-2.5,2.49.04,3.48.01,6.95.01,10.43,0,1.58.87,2.44,2.45,2.45q.58,0,.58.6v6.66c0,1.19.58,1.77,1.77,1.77h24.04c1.17,0,1.76-.58,1.76-1.75v-6.77q0-.51.52-.52c.27,0,.54.01.81-.06,1-.25,1.69-1.04,1.69-2.07.03-3.67.03-7.37,0-11.07ZM268.85,417.16h16.01c.55,0,.55.01.55.56v6.73c0,.81.25,1.06,1.06,1.06h5.73c.46,0,.48.02.48.48v2.66c0,.48-.02.5-.5.5h-23.33q-.55,0-.55-.56v-10.87c0-.55,0-.56.55-.56ZM292.13,451.58h-23.26q-.57,0-.57-.58v-5.99c0-.46.02-.49.48-.49h23.41c.48,0,.5.02.5.5v5.99c0,.56-.01.57-.56.57Z"/>
        <g>
          <path class="st4" d="M272.97,434.18v1.83h3.17v1.41h-3.17v1.83h3.52v1.41h-5.01v-7.9h5.01v1.41h-3.52Z"/>
          <path class="st4" d="M277.85,440.67v-7.9h2.78c.38,0,.73.06,1.05.18.33.12.61.29.85.51.24.22.43.48.57.79s.21.64.21,1.01-.07.72-.21,1.02c-.14.31-.33.57-.57.79-.24.22-.53.39-.85.51-.33.12-.68.18-1.05.18h-1.29v2.9h-1.49ZM280.65,436.36c.39,0,.68-.11.88-.33s.3-.47.3-.76c0-.14-.02-.28-.07-.41-.05-.13-.12-.25-.22-.35s-.22-.18-.37-.24-.32-.09-.52-.09h-1.31v2.17h1.31Z"/>
          <path class="st4" d="M286.8,440.84c-.34,0-.66-.05-.97-.14-.31-.1-.59-.24-.85-.43s-.48-.42-.67-.7-.34-.6-.45-.97l1.4-.55c.1.4.28.73.54.99.26.26.6.39,1.01.39.15,0,.3-.02.45-.06.14-.04.27-.1.39-.18.11-.08.2-.17.27-.29.07-.12.1-.25.1-.41,0-.15-.03-.28-.08-.4s-.14-.23-.26-.33c-.12-.1-.28-.2-.47-.3-.19-.1-.44-.19-.72-.3l-.49-.18c-.21-.07-.43-.17-.65-.3-.22-.12-.41-.28-.59-.45-.18-.18-.32-.38-.44-.62-.11-.24-.17-.51-.17-.81s.06-.6.18-.87.29-.5.52-.71c.22-.2.49-.36.81-.47.31-.11.66-.17,1.04-.17.4,0,.74.05,1.03.16.29.11.54.24.74.41.2.17.37.35.49.55.12.2.22.39.28.56l-1.31.55c-.07-.22-.21-.42-.4-.6s-.46-.26-.8-.26c-.32,0-.59.08-.81.23-.21.15-.32.35-.32.59s.1.44.31.6c.21.17.53.33.98.48l.5.17c.32.11.6.24.87.38.26.14.49.31.67.51.19.2.33.42.43.68.1.25.15.55.15.88,0,.41-.08.77-.25,1.06-.17.3-.38.54-.63.73-.26.19-.55.33-.87.43-.34.11-.65.15-.96.15Z"/>
        </g>
        <g>
          <path class="st4" d="M321.39,439.17l4-4.99h-3.83v-1.41h5.56v1.5l-3.96,4.99h4v1.41h-5.78v-1.5h0Z"/>
          <path class="st4" d="M328.41,432.77h1.49v7.9h-1.49v-7.9Z"/>
          <path class="st4" d="M331.49,440.67v-7.9h2.78c.38,0,.73.06,1.05.18.33.12.61.29.85.51s.43.48.57.79.21.64.21,1.01-.07.72-.21,1.02c-.14.31-.33.57-.57.79-.24.22-.53.39-.85.51-.33.12-.68.18-1.05.18h-1.29v2.9h-1.49ZM334.29,436.36c.39,0,.68-.11.88-.33s.3-.47.3-.76c0-.14-.02-.28-.07-.41-.05-.13-.12-.25-.22-.35s-.22-.18-.37-.24-.32-.09-.52-.09h-1.31v2.17h1.31Z"/>
        </g>
      </g>
      <g class="st10">
        <path class="st4" d="M300.13,433.27h9.07v2.24h-9.07v-2.24ZM300.13,437.14h9.07v2.24h-9.07v-2.24Z"/>
      </g>
    </g>
    <g class="st10">
      <path class="st4" d="M156.76,478.88h1.61c1.26,0,2.11.81,2.11,1.97s-.85,1.97-2.11,1.97h-1.61v-3.94ZM158.34,482.46c1.05,0,1.73-.67,1.73-1.61s-.68-1.61-1.73-1.61h-1.17v3.23h1.17Z"/>
      <path class="st4" d="M165.14,480.85c0-1.15.88-2.01,2.07-2.01s2.07.85,2.07,2.01-.89,2.01-2.07,2.01c-1.19,0-2.07-.86-2.07-2.01ZM168.87,480.85c0-.94-.7-1.64-1.65-1.64s-1.66.69-1.66,1.64.71,1.63,1.66,1.63c.94,0,1.65-.69,1.65-1.63Z"/>
      <path class="st4" d="M179.6,478.88l-1.33,3.95h-.44l-1.16-3.37-1.16,3.37h-.43l-1.33-3.95h.43l1.14,3.39,1.18-3.39h.39l1.16,3.41,1.16-3.41h.39Z"/>
      <path class="st4" d="M187.73,478.88v3.95h-.34l-2.54-3.2v3.2h-.42v-3.95h.34l2.54,3.2v-3.2h.42Z"/>
      <path class="st4" d="M193.09,478.88h.42v3.59h2.21v.36h-2.63v-3.95Z"/>
      <path class="st4" d="M200.06,480.85c0-1.15.88-2.01,2.07-2.01s2.07.85,2.07,2.01-.89,2.01-2.07,2.01c-1.19,0-2.07-.86-2.07-2.01ZM203.79,480.85c0-.94-.7-1.64-1.65-1.64s-1.66.69-1.66,1.64.71,1.63,1.66,1.63c.94,0,1.65-.69,1.65-1.63Z"/>
      <path class="st4" d="M211.64,481.77h-2.2l-.47,1.05h-.43l1.8-3.95h.41l1.8,3.95h-.44l-.47-1.05ZM211.48,481.43l-.95-2.12-.95,2.12h1.9Z"/>
      <path class="st4" d="M217.28,478.88h1.61c1.26,0,2.11.81,2.11,1.97s-.85,1.97-2.11,1.97h-1.61v-3.94ZM218.86,482.46c1.05,0,1.73-.67,1.73-1.61s-.68-1.61-1.73-1.61h-1.17v3.23h1.17Z"/>
      <path class="st4" d="M234.04,481.77h-2.2l-.47,1.05h-.43l1.8-3.95h.41l1.8,3.95h-.44l-.47-1.05ZM233.89,481.43l-.95-2.12-.95,2.12h1.9Z"/>
      <path class="st4" d="M239.68,478.88h.42v3.59h2.21v.36h-2.63v-3.95Z"/>
      <path class="st4" d="M247.08,478.88h.42v3.59h2.21v.36h-2.63v-3.95Z"/>
      <path class="st4" d="M260.45,479.24v1.55h2.04v.36h-2.04v1.67h-.42v-3.95h2.71v.36h-2.29Z"/>
      <path class="st4" d="M267.68,478.88h.42v3.95h-.42v-3.95Z"/>
      <path class="st4" d="M273.46,478.88h.42v3.59h2.21v.36h-2.63v-3.95Z"/>
      <path class="st4" d="M283.64,482.46v.36h-2.79v-3.95h2.71v.36h-2.29v1.4h2.04v.37h-2.04v1.47h2.37Z"/>
      <path class="st4" d="M294.67,479.24v1.55h2.04v.36h-2.04v1.67h-.42v-3.95h2.71v.36h-2.29Z"/>
      <path class="st4" d="M301.5,480.85c0-1.15.88-2.01,2.07-2.01s2.07.85,2.07,2.01-.89,2.01-2.07,2.01c-1.19,0-2.07-.86-2.07-2.01ZM305.23,480.85c0-.94-.7-1.64-1.65-1.64s-1.66.69-1.66,1.64.71,1.63,1.66,1.63c.94,0,1.65-.69,1.65-1.63Z"/>
      <path class="st4" d="M313.35,482.82l-.9-1.27c-.1.01-.2.02-.32.02h-1.06v1.25h-.42v-3.95h1.48c1,0,1.61.51,1.61,1.35,0,.62-.33,1.05-.9,1.24l.96,1.35h-.45ZM313.33,480.23c0-.63-.42-.99-1.21-.99h-1.05v1.98h1.05c.79,0,1.21-.37,1.21-.99Z"/>
      <path class="st4" d="M322.91,478.88v3.95h-.4v-3.16l-1.55,2.66h-.2l-1.55-2.64v3.14h-.4v-3.95h.34l1.71,2.93,1.7-2.93h.35Z"/>
      <path class="st4" d="M330.74,481.77h-2.2l-.47,1.05h-.43l1.8-3.95h.41l1.8,3.95h-.44l-.47-1.05ZM330.59,481.43l-.95-2.12-.95,2.12h1.9Z"/>
      <path class="st4" d="M336.96,479.24h-1.39v-.36h3.19v.36h-1.39v3.59h-.42v-3.59h.01Z"/>
      <path class="st4" d="M343.06,482.35l.16-.32c.28.28.78.48,1.3.48.74,0,1.06-.31,1.06-.7,0-1.08-2.43-.42-2.43-1.88,0-.58.45-1.08,1.45-1.08.45,0,.91.13,1.22.35l-.14.33c-.34-.22-.73-.33-1.08-.33-.72,0-1.04.32-1.04.72,0,1.08,2.43.43,2.43,1.87,0,.58-.46,1.08-1.47,1.08-.58-.01-1.16-.22-1.46-.52Z"/>
    </g>
  </g>
  <g>
    <path class="st19" d="M65.55,332.97c20.3-17.05,38.83-35.74,53.6-57.91,1.61-2.41,2.95-5,4.41-7.5.16-2.15.92-4.14,1.62-6.16,1.62-4.7,1.53-5.03-3-6.77-10.87-4.18-20.74-10.09-30.05-17.03-2.56-1.91-4.96-3.94-6.81-6.56-4.48-4.65-9.24-9.07-12.63-14.66-5-8.26-7.36-16.8-1.73-25.71,4.48-7.09,11.69-9.4,19.49-10.11,10.2-.93,20.26.47,30.18,2.69,3.01.67,3.53,0,3.54-2.93.04-29.64,5.04-58.31,18.24-85.08,16.92-34.33,43.12-57.35,81.37-65.16,2.97-.61,5.95-1.3,9.02-1.1,10.1-.52,20.2-.55,30.31.01,13.88.9,26.69,5.29,38.74,12.02,14.32,8,25.55,19.27,34.43,32.98,1.17,1.8,2.51,3.48,3.76,5.22,10.14,15.9,15.05,33.66,18.37,51.97,2.65,14.64,3.39,29.42,3.14,44.26-.05,2.79.11,5.56.51,8.33.39,2.72,1.44,3.47,4.05,2.35,3.35-1.42,6.63-3.2,10.46-3,9.33-2.86,18.43-3.11,26.82,2.77,5.43,3.8,8.91,9.2,11.71,15.09.54,1.13,1.14,2.23,1.71,3.34,2.84,6.27,2.45,12.61-.02,18.8-2.2,5.52-5.83,10.01-10.71,13.52-6.93,4.99-14.49,8.82-22.12,12.56-3.08,1.51-6.09,3.13-8.85,5.17-3.24,2.38-3.53,3.82-1.51,7.39.37.66.76,1.33,1.24,1.91,6.53,7.89,11.1,16.93,15.35,26.15,4.33,9.38,10.04,17.87,16.66,25.77,6.49,7.82,15.27,12.31,24.25,16.42,5.52,2.52,11.3,4.41,17.15,6.05,8.4,2.36,11.23,5.82,12.17,14.72,1.22,12.34-2.71,18.85-14.08,23.69-4.97,2.12-10.24,2.89-15.45,3.96-5.1,1.05-10.23,1.97-15.14,3.75-7.29,2.65-11.79,7.7-13.02,15.45-.62,3.89-1.32,7.76-2.58,11.5-4.69,13.88-17.39,19.44-30.81,13.54-5.6-2.46-10.68-5.85-15.97-8.85-.55-.31-1.08-.67-1.63-.98-7.9-4.43-10.12-4.26-15.12,3.19-7.36,10.96-18.07,17.28-29.67,22.34-16.55,7.21-34.02,10.9-51.94,12.61-8.33.79-16.67,1.78-25.03,1.42-17.42-.75-34.64-2.68-51-9.35-12.91-5.26-23.52-13.27-31.4-24.88-4.92-7.24-8.58-8.25-16.87-5.3-3.47,1.24-6.8,2.81-10.23,4.15-4.91,1.92-9.93,3.02-15.24,2.66-1.96-.13-3.77-.46-5.23-1.88-8.23-3.36-12.07-10.26-14.61-18.19-.52-.86-1.27-1.73-1.34-2.69-.46-6.08-4.98-9.19-9.22-12.26-8.31-6.02-17.47-10.6-26.62-15.18-2.93-1.47-5.87-2.92-8.44-4.99-1.61-2.08-4.15-2.81-6.21-4.25-7.07-4.95-9.99-10.7-8.49-17.18,1.61-6.93,6.32-10.51,15.38-11.72,7.65-.11,15.31-.03,22.96.06.74.05,1.53.22,2.13-.43Z"/>
    <path class="st16" d="M100.01,419.83c8.62,2.58,16.5-.06,24.27-3.45,2.09-.91,4.21-1.77,6.36-2.54,8.65-3.07,12.84-1.88,17.84,5.72,6.76,10.27,15.82,17.74,26.88,22.86,10.91,5.05,22.47,7.95,34.34,9.38,29.37,3.55,58.2.71,86.36-8.32,11.53-3.69,22.42-8.79,31.73-16.8,3.51-3.02,6.14-6.73,8.79-10.44,4.42-6.19,6.22-6.86,13.01-3.49,6.35,3.15,12.34,7,18.63,10.29,5.04,2.63,10.45,3.99,16.16,2.48,10.63-2.81,14.4-11.13,16.46-20.76.45-2.1.67-4.25,1.09-6.36,1.93-9.81,8.88-14.36,17.81-16.55,7.13-1.75,14.43-2.84,21.52-4.71,9-2.38,16.35-6.89,18.81-16.81.63-2.53-.25-5.07.38-7.56.35,2.72,1.69,4.1,4.56,4.86,7.7,2.04,11.75,10.07,10.31,19.57-1.38,9.11-6.91,14.69-15.27,17.78-7.06,2.61-14.54,3.44-21.84,5.06-3.61.8-7.12,1.84-10.47,3.39-6.24,2.88-9.82,7.73-10.93,14.53-.74,4.5-1.63,8.98-3.25,13.28-4.38,11.57-15.03,16.57-26.76,12.51-5.57-1.92-10.41-5.23-15.45-8.15-2.63-1.52-5.28-3.06-8.06-4.28-5.55-2.45-7.97-1.88-11.24,3.25-5.92,9.29-14.11,15.81-23.78,20.77-11.72,6-24.17,9.84-37,12.49-23.56,4.87-47.28,6.13-71.11,2.39-15.69-2.46-30.68-6.99-43.5-16.91-5.16-3.99-9.33-8.9-13.09-14.23-5.91-8.38-9.42-9.37-19.11-5.76-3.8,1.42-7.52,3.05-11.3,4.5-15.04,5.77-27.09.1-32.19-15.11-.34-.95-.65-1.92-.96-2.88Z"/>
    <path class="st11" d="M406.87,315.6c-5.09-3.41-8.05-8.62-11.13-13.62-2.72-4.41-5.08-9.05-7.29-13.74-3.79-8.03-8.01-15.74-13.49-22.81-5.73-7.38-5.41-8.97,2.65-13.72,7.07-4.17,14.56-7.64,21.7-11.69,8.59-4.88,15.67-11.17,18.02-21.39,1.11-4.82-.05-9.55-.49-14.3,18.83,9.73,21.05,37.22,4.08,50.29-6.49,5-13.9,8.35-21.15,11.98-3.52,1.76-6.98,3.62-10.18,5.92-4.12,2.96-4.48,4.47-1.89,8.79,3.38,5.66,8.09,10.43,10.96,16.44,2.82,5.91,6.19,11.57,8.21,17.85Z"/>
    <path class="st13" d="M376.58,183.13c-3.97,1.56-8,2.99-11.89,4.72-2.26,1.01-3.11.65-3.44-1.88-.45-3.53-.78-7.04-.72-10.59.35-19.71-1.32-39.2-6.14-58.37-2.98-11.83-7.13-23.22-12.87-34.01-.63-1.19-1.73-2.25-1.47-3.8,6.42,5.76,10.88,13.01,15.01,20.41,11.45,20.5,17.02,42.77,19.23,65.98.45,4.8.6,9.62.92,14.43.07,1.19-.44,2.68,1.37,3.11Z"/>
    <path class="st14" d="M39.78,366.52c2.93.21,5.04,2.25,7.49,3.48,9.73,4.87,19.42,9.81,28.43,15.99,5.6,3.84,9.7,8.43,9.7,15.65-11.22-6.94-23.45-12.01-34.71-18.85-4.37-2.66-8.44-5.6-10.32-10.71-.68-1.85-1-3.65-.59-5.56Z"/>
    <path class="st20" d="M85.32,231.04c12.03,10,24.99,18.43,39.85,23.62,2.07.72,2.4,2.1,1.91,3.84-.88,3.12-1.84,6.24-3.52,9.05-.08-1.97-1.88-2.22-3.09-2.94-11.4-6.78-21.87-14.67-30.16-25.16-2.03-2.57-3.94-5.24-4.99-8.41Z"/>
    <path class="st8" d="M65.55,332.97c-.28.24-.56.67-.85.68-8.08.05-16.17.61-24.23-.27,8.34-1.22,16.72-.62,25.08-.41Z"/>
    <path class="st9" d="M263.11,28.99c-10.1,0-20.2,0-30.3-.01,6.56-1.59,13.23-1.05,19.87-.96,3.47.05,7.06-.41,10.43.97Z"/>
    <path class="st1" d="M155.64,408.48c-5.3-5.53-11.45-9.2-19.44-8.57-6.68.53-12.65,3.43-18.77,5.84-1.41.56-2.8,1.16-4.24,1.64-8.25,2.8-14.1.65-15.16-7.7-1.95-15.49-12.56-22.91-24.42-29.6-10.12-5.71-20.46-11.02-30.67-16.57-1.54-.84-3-1.88-4.3-3.05-.76-.68-2.09-1.39-1.61-2.72.4-1.13,1.54-1.55,2.73-1.8,6.52-1.37,13.18-1.76,19.69-.9,6.95.92,12.43-.79,17.66-5.41,20.07-17.73,38.77-36.66,53.36-59.28,4.05-6.28,7.42-12.91,8.8-20.41,1.48-8.06-1.31-13.56-9.09-16.48-15.62-5.87-29.5-14.41-41.23-26.32-3.03-3.08-5.61-6.52-7.52-10.42-3.2-6.55-.82-11.47,6.21-13.22,8.39-2.08,16.66-.49,24.92.73,6.78,1,13.36,2.78,19.81,5.14,4.43,1.63,4.65,1.26,4.39-3.35-1.57-28.25.99-56,11.15-82.63,11.14-29.18,29.02-52.58,58.58-65.23,17.39-7.44,35.64-9.45,54.39-7.33,36.41,4.12,60.14,24.74,74.3,57.46,7.62,17.59,11.39,36.17,12.37,55.31,1.37,5.73.48,11.55.69,17.32.14,3.9-.08,7.82.1,11.72.11.41.3.79.57,1.12-.31,3.75.65,7.32,1.8,10.79,1.83,5.58,5.08,7.52,11.02,6.89,5.65-.6,10.45-3.67,15.69-5.48,2.86-.99,5.66-2.17,8.74-2.33,8.07-.42,13.27,2.92,16.44,10.61-1.63,10-7.27,16.77-16.57,20.57-8.69,3.55-17.46,6.93-25.69,11.5-1.67.93-3.26,1.97-4.88,2.97-3.32,2.06-5.31,4.73-5.68,8.86-.44,4.93-2.02,9.66-3.85,14.29-4.01,10.18-2.64,16.82,5.94,23.63,13.34,10.59,21.97,24.8,30.87,38.82,1.8,2.84,3.88,5.34,6.44,7.43,6.26,5.1,13.18,9.01,20.89,11.51,2.32.75,4.65,1.23,7.09,1.18,1.65-.04,3.29.08,4.9.57,5.88,1.81,7.75,7.41,3.96,12.29-2.05,2.65-4.81,4.52-7.86,5.86-4.65,2.04-9.36,3.95-14.29,5.22-12.35,3.17-21.06,10.23-24.72,22.81-.39,1.34-.97,2.62-1.67,3.83-2.56,4.42-5.54,5.62-10.5,4.56-3.57-.76-6.48-2.85-9.7-4.33-6.93-3.18-14.08-4.04-21.52-2.2-2.13.53-4.2,1.28-5.75,2.82-6.59,6.56-15.18,9.63-23.38,13.22-17.49,7.65-35.52,13.76-54.59,16.07-8.04.97-16.11,1.7-24.21,2.25-11.5.78-22.79-.01-34.06-1.79-8.93-1.41-17.57-3.69-25.12-9.17-4.18-3.02-8.9-5.33-13.01-8.54Z"/>
    <path class="st5" d="M155.64,408.48c4.76,1.27,8.65,4.29,12.44,7.08,7.28,5.35,15.58,7.71,24.08,9.49,8.28,1.73,16.79,2.5,25.21,2.34,21.63-.41,43.1-2.47,63.85-9.14,14.58-4.69,28.69-10.61,42.27-17.7,1.74-.91,2.97-2.74,4.57-3.97,9.11-6.99,18.87-5.84,28.76-2.08,3.53,1.34,6.54,3.81,10.3,4.71,4.91,1.17,7.56.06,9.8-4.61,1.31-2.73,2.38-5.59,3.45-8.42,3.97-10.45,12.72-14.91,22.52-18.02,7.22-2.29,14.61-4.12,20.67-9.07,2.53-2.07,4.17-4.67,3.38-7.81-.86-3.41-3.77-5.15-7.19-5.18-14.31-.13-25.38-7.2-34.97-16.77-3.66-3.65-5.88-8.74-8.78-13.16-5.63-8.56-11.24-17.15-18.87-24.16-3.88-3.56-8.28-6.46-11.4-10.96-3.22-4.64-3.57-9.52-2.19-14.42,2.05-7.27,5.2-14.21,5.73-21.92.17-2.47,2.45-4,4.47-5.42,9.42-6.62,20.07-10.75,30.69-14.81,9.04-3.46,14.56-9.65,17.19-18.73.19-.64.35-1.21,1-1.49,4.84,6.61,3.79,14.8-2.48,20.28-5.97,5.22-13.21,8.23-20.13,11.81-4.25,2.19-8.5,4.36-12.4,7.2-9.64,7.02-11.74,15.22-4.96,25.18,6.83,10.04,13.05,20.33,18.12,31.34,3.07,6.67,7.01,12.83,11.65,18.51,10.78,13.2,24.84,21.59,40.62,27.39,3.42,1.26,6.94,2.28,10.44,3.31,4.88,1.44,6.56,6.44,3.61,10.79-2.49,3.67-6.45,4.75-10.35,5.72-6.87,1.71-13.91,2.61-20.75,4.52-14.05,3.92-23.68,11.86-26.11,27.06-.59,3.7-1.09,7.51-2.73,11.01-2.37,5.05-6.54,6.77-11.75,4.63-6.1-2.51-11.35-6.54-17.16-9.58-5.75-3-11.54-5.69-18.37-4.34-5.05,1-9.14,3.81-11.58,7.91-7.77,13.06-20.25,19.33-33.69,24.14-15.57,5.57-31.77,8.36-48.26,9.48-8.92,1.06-17.84.99-26.76-.06-15.68-1.36-30.9-4.26-44.8-12.27-8.34-4.81-13.92-12.1-19.14-19.81Z"/>
    <path class="st7" d="M348.41,182.98c-.04.12-.04.3-.12.35-.15.08-.34.08-.51.11-.08-3.52-.21-7.05-.22-10.57-.03-6.42.02-12.85.03-19.27.23.7.47,1.41.7,2.12.7,9.08.46,18.17.12,27.26Z"/>
    <path class="st6" d="M348.41,182.98c-.04-9.09-.08-18.18-.12-27.27.84.44.72,1.26.72,1.98-.01,8.69-.04,17.38-.06,26.06-.19-.25-.36-.51-.54-.77Z"/>
    <path class="st0" d="M219.57,440.54c8.92.02,17.84.04,26.76.06-.82.21-1.64.42-2.47.64-6.81.69-13.62.49-20.44.11-1.21-.6-2.73.28-3.85-.81Z"/>
    <path class="st12" d="M223.43,441.35c6.81-.04,13.62-.07,20.44-.11-2.84,1.55-5.92.71-8.86.7-3.86,0-7.79.77-11.58-.59Z"/>
    <path class="st15" d="M225.69,53.52c3.3-.04,6.6.04,9.89-.16,1.67-.1,2.68.73,3.41,1.85.85,1.3-.24,2.25-1.03,3.27-4.83,6.22-11.47,10-18.4,13.16-9.81,4.48-19.09,9.82-26.74,17.36-7.6,7.49-14.14,15.97-19.71,25.17-6.31,10.43-11.66,21.28-15.58,32.82-2.39,7.03-3.65,14.35-5.44,21.52-1.16,4.65.44,10.01-4.09,14.69v-27.59c1.41-1.89-.07-4.38,1.28-6.28.59-7.23,2.8-14.1,4.37-21.13,2.31-10.34,6.61-19.83,10.98-29.33,4.58-9.96,11.73-17.72,20.32-24.44,5.22-4.08,10.22-8.42,15.83-11.98,6.21-3.94,12.77-6.86,20.17-7.61,1.37-1.21,3.38-.1,4.74-1.32Z"/>
    <path class="st21" d="M138.82,285.12c-.1,8.4-4.49,15.31-8.2,22.32-4,7.56-9.42,14.24-16.22,19.57-6.69,5.23-14.08,9.27-22.37,11.35-2,.5-3.82,2.71-5.94,1.16,21.8-14.89,39.35-33.62,51.16-57.5,3.08-.27,2.16,1.5,1.57,3.1Z"/>
    <path class="st18" d="M138.82,285.12c-.49-1.05.8-3.01-1.58-3.1-.42-2.04.65-3.26,2.63-4.41.24,2.75,1.58,5.33-1.05,7.51Z"/>
    <path class="st2" d="M149.29,149.33c-.25,2.13,1.26,4.62-1.28,6.28.26-2.12-1.38-4.64,1.28-6.28Z"/>
    <path class="st3" d="M225.69,53.52c-1.02,2.44-3.1,1.07-4.73,1.32,1.03-2.4,3.07-1.17,4.73-1.32Z"/>
  </g>
</svg>